<svg xmlns="http://www.w3.org/2000/svg" width="14" height="14" viewBox="0 0 14 14">
  <g id="icon" transform="translate(0 -1223)">
    <rect id="Rectangle_351" data-name="Rectangle 351" width="14" height="14" transform="translate(0 1223)" fill="none"/>
    <path id="Path_96" data-name="Path 96" d="M184.255,6.219l-3.468,6.309a.068.068,0,0,0,.069.1l3.084-.148a.068.068,0,0,1,.069.1L179.894,20.1c-.037.067.055.131.115.08l9.853-8.337a.067.067,0,0,0-.049-.117h-2.778a.067.067,0,0,1-.058-.109l2.885-5.4C189.9,6.175,184.255,6.219,184.255,6.219Z" transform="translate(-178.885 1216.801)" fill="#e70406"/>
  </g>
</svg>
