<svg xmlns="http://www.w3.org/2000/svg" width="24" height="21" viewBox="0 0 24 21">
  <path id="Path_115" data-name="Path 115" d="M93.547,68.666a3.159,3.159,0,0,0-2.239-1.357c-.963-.109-3.952-.178-5.588-.178-.353,0-.753,0-1.194.009a.44.44,0,0,1,0-.067v-.009a2.779,2.779,0,0,0-.438-1.93,1.918,1.918,0,0,0-1.358-.825,16.975,16.975,0,0,0-1.845-.084,17.927,17.927,0,0,0-1.871.084,3.013,3.013,0,0,0-2.378,2.349c-.042.164-.1.428-.178.784a2.387,2.387,0,0,0-.59-.131c-.51-.046-1.135-.07-1.858-.07s-1.341.023-1.834.07a1.973,1.973,0,0,0-1.44.827,2.365,2.365,0,0,0-.4,1.664c.059.492.326,1.926.492,2.737l1.048,5.131c.355,1.737.611,2.725.91,3.758a5.28,5.28,0,0,0,1.625,2.506,4.708,4.708,0,0,0,2.6,1.145c1,.09,4.006.147,5.64.147s4.623-.057,5.584-.148a3.615,3.615,0,0,0,.391-.059,4.569,4.569,0,0,0,3.874-3.7c.04-.125.077-.252.109-.377.12-.465.263-1.038.424-1.755.177-.793.352-1.657.55-2.72.386-2.07.551-3.248.693-4.479a4.779,4.779,0,0,0-.736-3.318ZM77.16,83.08a3.259,3.259,0,0,1-2.674-2.272c-.283-.981-.528-1.923-.867-3.587L72.57,72.089c-.17-.834-.417-2.177-.462-2.555a.205.205,0,0,1,.02-.142.278.278,0,0,1,.2-.085c.444-.042,1.011-.063,1.686-.063s1.253.021,1.716.063a1,1,0,0,1,.807.671v0a2.28,2.28,0,0,0,2.121,1.7c.447-.005.872-.008,1.23-.008,1.783,0,4.633.063,5.5.141a3.259,3.259,0,0,1,2.674,2.272c.291,1.006.526,1.915.867,3.587s.477,2.578.6,3.581a1.7,1.7,0,0,1-.266,1.207,1.514,1.514,0,0,1-.918.584c-.135.022-.277.039-.428.05a.661.661,0,0,0-.067.009c-1.047.069-3.554.122-5.188.122-1.783,0-4.633-.063-5.5-.141ZM92.515,71.726c-.137,1.183-.3,2.319-.67,4.327-.193,1.036-.363,1.876-.534,2.642-.074.33-.144.629-.21.9-.1-.648-.236-1.391-.436-2.374-.355-1.736-.611-2.725-.91-3.758a5.28,5.28,0,0,0-1.625-2.506,4.708,4.708,0,0,0-2.6-1.145c-1-.09-4.006-.147-5.64-.147-.369,0-.789,0-1.248.008a.484.484,0,0,1-.407-.31l0-.006a2.9,2.9,0,0,0-.227-.558c.068-.305.12-.55.164-.767.081-.38.146-.671.184-.82a1.192,1.192,0,0,1,.836-.911,16.293,16.293,0,0,1,1.7-.075,15.369,15.369,0,0,1,1.667.074.178.178,0,0,1,.139.078.652.652,0,0,1,.067.424v.008a2.316,2.316,0,0,0,.43,1.7,1.6,1.6,0,0,0,1.3.633c.448-.006.873-.009,1.229-.009,1.777,0,4.586.075,5.409.168a1.414,1.414,0,0,1,1.021.61,2.631,2.631,0,0,1,.365,1.815Z" transform="translate(-70.323 -64.224)" fill="#e70406"/>
</svg>
