<svg xmlns="http://www.w3.org/2000/svg" width="98" height="18" viewBox="0 0 98 18">
  <path id="Path_20" data-name="Path 20" d="M-5599.845-50.442a4.36,4.36,0,0,1-1.619-1.267.7.7,0,0,1-.174-.435.676.676,0,0,1,.328-.56.8.8,0,0,1,.436-.138.768.768,0,0,1,.638.326,2.748,2.748,0,0,0,1.06.831,3.493,3.493,0,0,0,1.449.287,2.69,2.69,0,0,0,1.388-.365,2.634,2.634,0,0,0,1-1.073,3.568,3.568,0,0,0,.373-1.687v-.762a3.588,3.588,0,0,1-1.278,1.337,3.382,3.382,0,0,1-1.791.482,3.908,3.908,0,0,1-2.064-.552,3.78,3.78,0,0,1-1.417-1.531,4.771,4.771,0,0,1-.507-2.223,4.516,4.516,0,0,1,.546-2.238,3.9,3.9,0,0,1,1.526-1.531,4.468,4.468,0,0,1,2.228-.552,4.4,4.4,0,0,1,2.2.552,4.072,4.072,0,0,1,.563.384l-.01-.92h1.524v4.122q0,.091,0,.184v3.358a4.644,4.644,0,0,1-.545,2.238,4.051,4.051,0,0,1-1.535,1.592,4.321,4.321,0,0,1-2.238.584,4.948,4.948,0,0,1-2.085-.443Zm.694-9.878a2.624,2.624,0,0,0-.989,1.041,3.146,3.146,0,0,0-.358,1.508,3.1,3.1,0,0,0,.359,1.5,2.635,2.635,0,0,0,.989,1.034,2.75,2.75,0,0,0,1.426.373,2.745,2.745,0,0,0,1.425-.373,2.581,2.581,0,0,0,.982-1.034,3.146,3.146,0,0,0,.349-1.5,3.2,3.2,0,0,0-.349-1.508,2.569,2.569,0,0,0-.982-1.041,2.746,2.746,0,0,0-1.425-.373,2.75,2.75,0,0,0-1.425.373Zm-37.8,9.109a4.031,4.031,0,0,1-1.577-.317,4.039,4.039,0,0,1-1.288-.865,4.037,4.037,0,0,1-.867-1.285,4.013,4.013,0,0,1-.318-1.573v-8.707a4.012,4.012,0,0,1,.319-1.573,4.019,4.019,0,0,1,.867-1.285,4.037,4.037,0,0,1,1.288-.865,4.031,4.031,0,0,1,1.577-.318h8.724a4.033,4.033,0,0,1,1.577.318,4.028,4.028,0,0,1,1.287.865,4.022,4.022,0,0,1,.868,1.285,4,4,0,0,1,.318,1.573v8.7a4.013,4.013,0,0,1-.318,1.573,4.031,4.031,0,0,1-.868,1.285,4.029,4.029,0,0,1-1.287.865,4.035,4.035,0,0,1-1.577.317Zm1.247-7.989a3.607,3.607,0,0,0,.3,1.484,2.386,2.386,0,0,0,.833,1.026,2.105,2.105,0,0,0,1.207.365h.031a1.258,1.258,0,0,0,.763-.217.668.668,0,0,0,.3-.56.812.812,0,0,0-.2-.56.65.65,0,0,0-.506-.218h-.388a.645.645,0,0,1-.562-.373,1.873,1.873,0,0,1-.218-.948v-3.669h-1.558Zm4.206-2.658a1.013,1.013,0,0,0,1.012,1.01,1.013,1.013,0,0,0,1.013-1.01,1.013,1.013,0,0,0-1.012-1.01,1.013,1.013,0,0,0-1.011,1.009Zm71.441,7.943a3.291,3.291,0,0,1-1.339-1.36,4.47,4.47,0,0,1-.483-2.153v-4.617h1.589v4.617a2.508,2.508,0,0,0,.677,1.9,2.5,2.5,0,0,0,1.8.645,2.668,2.668,0,0,0,1.192-.264,2.118,2.118,0,0,0,.841-.715,1.776,1.776,0,0,0,.3-1.01v-5.176h1.589v7.725a.783.783,0,0,1-.218.567.764.764,0,0,1-.577.225.771.771,0,0,1-.568-.225.767.767,0,0,1-.226-.567v-.171a3.471,3.471,0,0,1-1.184.769,3.941,3.941,0,0,1-1.465.272,3.975,3.975,0,0,1-1.932-.467Zm10.585-.117a4.094,4.094,0,0,1-1.549-1.554,4.375,4.375,0,0,1-.562-2.2,4.633,4.633,0,0,1,.521-2.2,3.93,3.93,0,0,1,1.433-1.547,3.811,3.811,0,0,1,2.033-.56,3.847,3.847,0,0,1,1.683.373,3.821,3.821,0,0,1,1.324,1.042v-4.991H-5543V-54.32a.794.794,0,0,1-.794.793.794.794,0,0,1-.794-.793l0-.073a4.324,4.324,0,0,1-.525.36,4.237,4.237,0,0,1-2.173.568,4.319,4.319,0,0,1-2.187-.568Zm.779-6.28a2.743,2.743,0,0,0-1,1.041,3,3,0,0,0-.367,1.485,3.055,3.055,0,0,0,.367,1.492,2.73,2.73,0,0,0,1,1.049,2.678,2.678,0,0,0,1.411.381,2.677,2.677,0,0,0,1.409-.381,2.677,2.677,0,0,0,.99-1.049,3.108,3.108,0,0,0,.358-1.492,3.066,3.066,0,0,0-.358-1.485,2.692,2.692,0,0,0-.99-1.041,2.676,2.676,0,0,0-1.41-.381,2.675,2.675,0,0,0-1.409.38Zm-21.973,6.3a3.9,3.9,0,0,1-1.526-1.531,4.493,4.493,0,0,1-.545-2.223,4.531,4.531,0,0,1,.545-2.238,3.9,3.9,0,0,1,1.527-1.531,4.467,4.467,0,0,1,2.228-.552,4.393,4.393,0,0,1,2.2.552,3.969,3.969,0,0,1,1.526,1.531,4.465,4.465,0,0,1,.554,2.238,4.5,4.5,0,0,1-.545,2.223,3.92,3.92,0,0,1-1.518,1.531,4.423,4.423,0,0,1-2.22.552,4.463,4.463,0,0,1-2.227-.553Zm.8-6.3a2.625,2.625,0,0,0-.989,1.042,3.141,3.141,0,0,0-.359,1.508,3.1,3.1,0,0,0,.359,1.5,2.639,2.639,0,0,0,.989,1.034,2.749,2.749,0,0,0,1.426.373,2.747,2.747,0,0,0,1.425-.373,2.572,2.572,0,0,0,.98-1.034,3.142,3.142,0,0,0,.352-1.5,3.2,3.2,0,0,0-.351-1.508,2.563,2.563,0,0,0-.981-1.042,2.749,2.749,0,0,0-1.425-.373,2.744,2.744,0,0,0-1.423.372Zm-14.807,6.3a4,4,0,0,1-1.535-1.547,4.429,4.429,0,0,1-.553-2.2,4.589,4.589,0,0,1,.538-2.231,3.864,3.864,0,0,1,1.5-1.539,4.32,4.32,0,0,1,2.181-.552,3.876,3.876,0,0,1,3.053,1.4.58.58,0,0,1,.156.4.681.681,0,0,1-.342.575.611.611,0,0,1-.359.109.782.782,0,0,1-.606-.281,2.489,2.489,0,0,0-.849-.614,2.677,2.677,0,0,0-1.051-.194,2.543,2.543,0,0,0-1.947.8,2.985,2.985,0,0,0-.748,2.122,3.147,3.147,0,0,0,.351,1.5,2.584,2.584,0,0,0,.981,1.034,2.777,2.777,0,0,0,1.441.373,2.591,2.591,0,0,0,1.713-.544.98.98,0,0,1,.577-.218.662.662,0,0,1,.4.138.724.724,0,0,1,.3.56.579.579,0,0,1-.187.42,3.965,3.965,0,0,1-2.805,1.042,4.386,4.386,0,0,1-2.211-.558Zm-25.875.008a3.908,3.908,0,0,1-1.527-1.531,4.5,4.5,0,0,1-.544-2.223,4.525,4.525,0,0,1,.545-2.238,3.9,3.9,0,0,1,1.526-1.531,4.47,4.47,0,0,1,2.228-.552,4.391,4.391,0,0,1,2.2.552,3.974,3.974,0,0,1,1.527,1.531,4.474,4.474,0,0,1,.553,2.238,4.493,4.493,0,0,1-.545,2.223,3.918,3.918,0,0,1-1.519,1.531,4.423,4.423,0,0,1-2.221.552,4.466,4.466,0,0,1-2.225-.553Zm.8-6.3a2.62,2.62,0,0,0-.99,1.042,3.141,3.141,0,0,0-.358,1.508,3.1,3.1,0,0,0,.358,1.5,2.634,2.634,0,0,0,.99,1.034,2.744,2.744,0,0,0,1.424.373,2.749,2.749,0,0,0,1.426-.373,2.588,2.588,0,0,0,.981-1.034,3.153,3.153,0,0,0,.351-1.5,3.2,3.2,0,0,0-.35-1.508,2.576,2.576,0,0,0-.981-1.042,2.751,2.751,0,0,0-1.426-.373,2.743,2.743,0,0,0-1.424.373Zm34.793,6.793a2.1,2.1,0,0,1-1.207-.365,2.377,2.377,0,0,1-.833-1.026,3.583,3.583,0,0,1-.3-1.484v-9.265h1.558V-56.4a1.853,1.853,0,0,0,.218.948.642.642,0,0,0,.561.373h.39a.648.648,0,0,1,.506.218.81.81,0,0,1,.2.56.668.668,0,0,1-.3.559,1.256,1.256,0,0,1-.764.218Zm-15.663-.225a.766.766,0,0,1-.227-.567V-62.03h1.589v7.71a.781.781,0,0,1-.218.567.764.764,0,0,1-.576.225.77.77,0,0,1-.568-.225Zm-23.75.225a2.1,2.1,0,0,1-1.208-.365,2.384,2.384,0,0,1-.832-1.026,3.576,3.576,0,0,1-.3-1.484v-9.265h1.558V-56.4a1.853,1.853,0,0,0,.218.948.642.642,0,0,0,.561.373h.389a.646.646,0,0,1,.506.218.807.807,0,0,1,.2.56.666.666,0,0,1-.3.559,1.253,1.253,0,0,1-.763.218Zm23.593-10.189a.985.985,0,0,1-.3-.723.985.985,0,0,1,.3-.723.99.99,0,0,1,.724-.3.989.989,0,0,1,.724.3.987.987,0,0,1,.3.723.989.989,0,0,1-.3.723.989.989,0,0,1-.724.3.989.989,0,0,1-.724-.3Z" transform="translate(5641.004 67.998)" fill="#272727"/>
</svg>
